name analog
datacolumns 19
datarows 38
range 0.0 0.0185
endheader
time	ground_force_vx	ground_force_vy	ground_force_vz	ground_force_px	ground_force_py	ground_force_pz	l_ground_force_vx	l_ground_force_vy	l_ground_force_vz	l_ground_force_px	l_ground_force_py	l_ground_force_pz	ground_torque_x	ground_torque_y	ground_torque_z	l_ground_torque_x	l_ground_torque_y	l_ground_torque_z
0.0	-0.0	-0.0	-0.0	-3.733458995819092	-2.139129638671875	-766.3474731445312	-0.0	-0.0	-0.0	-34.479427337646484	16.284503936767578	75.84747314453125	-0.0	-0.0	-0.0	-0.0	-0.0	-0.0
0.0005	-0.0	-0.0	-0.0	-3.9386820793151855	-2.689680814743042	-766.3472900390625	-0.0	-0.0	-0.0	-34.84780502319336	16.257015228271484	76.00794982910156	-0.0	-0.0	-0.0	-0.0	-0.0	-0.0
0.001	-0.0	-0.0	-0.0	-4.319962024688721	-2.0365164279937744	-765.694091796875	-0.0	-0.0	-0.0	-34.56882858276367	16.15645980834961	75.06306457519531	-0.0	-0.0	-0.0	-0.0	-0.0	-0.0
0.0015	-0.0	-0.0	-0.0	-4.436275959014893	-2.258264780044556	-765.9512939453125	-0.0	-0.0	-0.0	-34.906253814697266	16.208431243896484	75.8741226196289	-0.0	-0.0	-0.0	-0.0	-0.0	-0.0
0.002	-0.0	-0.0	-0.0	-4.233718395233154	-2.482055187225342	-765.4486083984375	-0.0	-0.0	-0.0	-34.90266036987305	16.436573028564453	75.69695281982422	-0.0	-0.0	-0.0	-0.0	-0.0	-0.0
0.0025	-0.0	-0.0	-0.0	-4.446842193603516	-2.560723304748535	-764.8663330078125	-0.0	-0.0	-0.0	-34.672122955322266	15.920572280883787	75.4547119140625	-0.0	-0.0	-0.0	-0.0	-0.0	-0.0
0.003	-0.0	-0.0	-0.0	-4.741916179656982	-2.0260539054870605	-764.1724853515625	-0.0	-0.0	-0.0	-35.02999496459961	16.194534301757812	76.35956573486328	-0.0	-0.0	-0.0	-0.0	-0.0	-0.0
0.0035	-0.0	-0.0	-0.0	-4.4605255126953125	-2.1529030799865723	-763.6151733398438	-0.0	-0.0	-0.0	-34.775665283203125	16.052522659301758	75.6026611328125	-0.0	-0.0	-0.0	-0.0	-0.0	-0.0
0.004	-0.0	-0.0	-0.0	-5.084999084472656	-2.232165813446045	-761.9737548828125	-0.0	-0.0	-0.0	-34.7239990234375	16.166154861450195	76.30441284179688	-0.0	-0.0	-0.0	-0.0	-0.0	-0.0
0.0045000000000000005	-0.0	-0.0	-0.0	-4.799257755279541	-2.143298864364624	-764.2592163085938	-0.0	-0.0	-0.0	-34.695701599121094	16.308090209960938	74.7891616821289	-0.0	-0.0	-0.0	-0.0	-0.0	-0.0
0.005	-0.0	-0.0	-0.0	-4.99578857421875	-1.646254301071167	-763.8345947265625	-0.0	-0.0	-0.0	-34.55435562133789	16.32233238220215	76.23235321044922	-0.0	-0.0	-0.0	-0.0	-0.0	-0.0
0.0055	-0.0	-0.0	-0.0	-5.380744457244873	-1.599482774734497	-765.9723510742188	-0.0	-0.0	-0.0	-34.86553192138672	16.01459503173828	75.74954223632812	-0.0	-0.0	-0.0	-0.0	-0.0	-0.0
0.006	-0.0	-0.0	-0.0	-5.0991315841674805	-1.707597255706787	-765.9354248046875	-0.0	-0.0	-0.0	-34.681121826171875	16.09010124206543	76.8021011352539	-0.0	-0.0	-0.0	-0.0	-0.0	-0.0
0.006500000000000001	-0.0	-0.0	-0.0	-5.13670015335083	-1.374431848526001	-766.19580078125	-0.0	-0.0	-0.0	-34.77046585083008	16.156810760498047	75.36421203613281	-0.0	-0.0	-0.0	-0.0	-0.0	-0.0
0.007	-0.0	-0.0	-0.0	-4.977801322937012	-1.1534490585327148	-768.7243041992188	-0.0	-0.0	-0.0	-34.903297424316406	16.240774154663086	74.95671081542969	-0.0	-0.0	-0.0	-0.0	-0.0	-0.0
0.0075	-0.0	-0.0	-0.0	-4.722642421722412	-0.9430227875709534	-768.4061889648438	-0.0	-0.0	-0.0	-34.799346923828125	16.08991241455078	75.65876770019531	-0.0	-0.0	-0.0	-0.0	-0.0	-0.0
0.008	-0.0	-0.0	-0.0	-4.705144882202148	-1.0983296632766724	-771.6182861328125	-0.0	-0.0	-0.0	-34.89691925048828	16.305797576904297	76.3608169555664	-0.0	-0.0	-0.0	-0.0	-0.0	-0.0
0.0085	-0.0	-0.0	-0.0	-4.921013832092285	-1.3513787984848022	-773.578369140625	-0.0	-0.0	-0.0	-34.82871627807617	16.052194595336914	76.53372955322266	-0.0	-0.0	-0.0	-0.0	-0.0	-0.0
0.009000000000000001	-0.0	-0.0	-0.0	-4.771690368652344	-1.21882963180542	-774.0556030273438	-0.0	-0.0	-0.0	-34.71771240234375	16.127281188964844	75.33889770507812	-0.0	-0.0	-0.0	-0.0	-0.0	-0.0
0.0095	-0.0	-0.0	-0.0	-4.8173675537109375	-1.0095810890197754	-778.4085693359375	-0.0	-0.0	-0.0	-34.90364074707031	16.336950302124023	75.3682632446289	-0.0	-0.0	-0.0	-0.0	-0.0	-0.0
0.01	-0.0	-0.0	-0.0	-4.780073642730713	-0.8087406158447266	-779.1728515625	-0.0	-0.0	-0.0	-34.881256103515625	16.224449157714844	75.71770477294922	-0.0	-0.0	-0.0	-0.0	-0.0	-0.0
0.0105	-0.0	-0.0	-0.0	-4.163498401641846	-1.0695648193359375	-781.529052734375	-0.0	-0.0	-0.0	-34.762088775634766	16.239635467529297	76.2739028930664	-0.0	-0.0	-0.0	-0.0	-0.0	-0.0
0.011	-0.0	-0.0	-0.0	-4.207666873931885	-0.5052627921104431	-782.557861328125	-0.0	-0.0	-0.0	-34.76212692260742	16.36726188659668	76.83039093017578	-0.0	-0.0	-0.0	-0.0	-0.0	-0.0
0.0115	-0.0	-0.0	-0.0	-3.7468414306640634	-0.2897502183914184	-784.35400390625	-0.0	-0.0	-0.0	-34.76921081542969	16.074256896972656	76.36164855957031	-0.0	-0.0	-0.0	-0.0	-0.0	-0.0
0.012	-0.0	-0.0	-0.0	-3.59805965423584	-0.468044251203537	-786.5609130859375	-0.0	-0.0	-0.0	-34.74704360961914	16.01459503173828	76.1566162109375	-0.0	-0.0	-0.0	-0.0	-0.0	-0.0
0.0125	-0.0	-0.0	-0.0	-3.3750312328338623	-0.2524364590644836	-786.8848876953125	-0.0	-0.0	-0.0	-35.015380859375	16.42711067199707	75.16346740722656	-0.0	-0.0	-0.0	-0.0	-0.0	-0.0
0.013000000000000001	-0.0	-0.0	-0.0	-3.516310453414917	0.2082522064447403	-787.26611328125	-0.0	-0.0	-0.0	-34.74698638916016	16.284503936767578	76.68717193603516	-0.0	-0.0	-0.0	-0.0	-0.0	-0.0
0.0135	-0.0	-0.0	-0.0	-2.928862333297729	0.1248644888401031	-790.4764404296875	-0.0	-0.0	-0.0	-34.67921447753906	16.293502807617188	75.66027069091797	-0.0	-0.0	-0.0	-0.0	-0.0	-0.0
0.014	-0.0	-0.0	-0.0	-3.2923343181610107	0.1849602311849594	-790.4432373046875	-0.0	-0.0	-0.0	-34.85797882080078	16.194534301757812	75.30946350097656	-0.0	-0.0	-0.0	-0.0	-0.0	-0.0
0.0145	-0.0	-0.0	-0.0	-3.002714872360229	0.4978210031986236	-792.4236450195312	-0.0	-0.0	-0.0	-34.94126892089844	16.120126724243164	75.18817901611328	-0.0	-0.0	-0.0	-0.0	-0.0	-0.0
0.015	-0.0	-0.0	-0.0	-2.7808024883270264	0.5564530491828918	-791.123046875	-0.0	-0.0	-0.0	-34.9412956237793	16.141740798950195	76.56848907470703	-0.0	-0.0	-0.0	-0.0	-0.0	-0.0
0.0155	-0.0	-0.0	-0.0	-2.5041191577911377	1.020230054855347	-789.9781494140625	-0.0	-0.0	-0.0	-34.8050651550293	16.120258331298828	75.8056640625	-0.0	-0.0	-0.0	-0.0	-0.0	-0.0
0.016	-0.0	-0.0	-0.0	-1.96866774559021	0.958989679813385	-790.3078002929688	-0.0	-0.0	-0.0	-34.70988464355469	16.110126495361328	75.74414825439453	-0.0	-0.0	-0.0	-0.0	-0.0	-0.0
0.0165	-0.0	-0.0	-0.0	-1.4000463485717771	1.065945386886597	-789.0652465820312	-0.0	-0.0	-0.0	-34.5152473449707	16.194534301757812	75.92904663085938	-0.0	-0.0	-0.0	-0.0	-0.0	-0.0
0.017	-0.0	-0.0	-0.0	-0.9444841146469116	1.1742287874221802	-786.8848876953125	-0.0	-0.0	-0.0	-34.857200622558594	16.083415985107422	75.1657485961914	-0.0	-0.0	-0.0	-0.0	-0.0	-0.0
0.0175	-0.0	-0.0	-0.0	-1.0760740041732788	1.1798471212387085	-786.9248046875	-0.0	-0.0	-0.0	-34.65721893310547	16.17856788635254	77.18970489501953	-0.0	-0.0	-0.0	-0.0	-0.0	-0.0
0.018000000000000002	-0.0	-0.0	-0.0	-0.2676315307617187	0.7341428995132446	-785.6581420898438	-0.0	-0.0	-0.0	-34.97330856323242	15.94560718536377	76.07476806640625	-0.0	-0.0	-0.0	-0.0	-0.0	-0.0
0.0185	-0.0	-0.0	-0.0	0.2886371314525604	0.8545982837677002	-781.9194946289062	-0.0	-0.0	-0.0	-34.79458236694336	16.178457260131836	75.8056640625	-0.0	-0.0	-0.0	-0.0	-0.0	-0.0
